<svg width="49" height="49" viewBox="0 0 49 49" fill="none" 
    xmlns="http://www.w3.org/2000/svg">
    <path d="M44.4458 0.875H11.2312C10.7526 0.875 10.3648 1.26299 10.3648 1.74161C10.3648 2.22012 10.7525 2.60822 11.2312 2.60822H44.4457C45.7122 2.60822 46.7426 3.63897 46.7426 4.90574V44.4569C46.7426 45.7236 45.7122 46.7544 44.4457 46.7544H31.0774V37.3376C31.0774 36.8591 30.6897 36.471 30.211 36.471C29.7324 36.471 29.3446 36.859 29.3446 37.3376V46.7543H24.7508V29.4273C24.7508 28.9488 24.363 28.5607 23.8843 28.5607H20.7967V23.9657H23.8844C24.363 23.9657 24.7509 23.5777 24.7509 23.0991V18.3529C24.7509 13.5968 28.6195 9.72722 33.3743 9.72722H38.8346V14.3223H33.3743C31.1523 14.3223 29.3447 16.1304 29.3447 18.3529V23.0991C29.3447 23.5776 29.7324 23.9657 30.2111 23.9657H38.8346V28.5607H30.2111C29.7325 28.5607 29.3447 28.9487 29.3447 29.4273V34.1735C29.3447 34.652 29.7324 35.0401 30.2111 35.0401C30.6897 35.0401 31.0775 34.6521 31.0775 34.1735V30.2939H39.701C40.1796 30.2939 40.5674 29.9059 40.5674 29.4273V23.0991C40.5674 22.6206 40.1797 22.2325 39.701 22.2325H31.0775V18.353C31.0775 17.0862 32.108 16.0555 33.3744 16.0555H39.701C40.1796 16.0555 40.5674 15.6675 40.5674 15.1889V8.86079C40.5674 8.38229 40.1797 7.99418 39.701 7.99418H33.3744C27.6638 7.99418 23.0182 12.6411 23.0182 18.353V22.2325H19.9305C19.4519 22.2325 19.0641 22.6205 19.0641 23.0991V29.4273C19.0641 29.9058 19.4518 30.2939 19.9305 30.2939H23.0182V46.7543H4.90466C3.6382 46.7543 2.60775 45.7235 2.60775 44.4568V4.90565C2.60775 3.63888 3.6382 2.60813 4.90466 2.60813H8.06799C8.54656 2.60813 8.93441 2.22014 8.93441 1.74152C8.93441 1.26298 8.54655 0.875 8.06799 0.875H4.90466C2.68263 0.875 0.875 2.68313 0.875 4.90565V44.4568C0.875 46.6794 2.68262 48.4875 4.90466 48.4875H44.4457C46.6679 48.4875 48.4755 46.6794 48.4755 44.4569V4.90565C48.4755 2.68313 46.6679 0.875 44.4458 0.875Z" fill="#3B5998" stroke="#3B5998" stroke-width="0.25"/>
</svg>
